<svg xmlns="http://www.w3.org/2000/svg" data-name="Layer 1" viewBox="0 0 100 125" x="0px" y="0px"><title>Artboard 41</title><g><rect x="22" y="46" width="8" height="8"/><rect x="38" y="46" width="8" height="8"/><rect x="54" y="46" width="8" height="8"/><rect x="70" y="46" width="8" height="8"/><path d="M62,18.34l-12,12-12-12L32.34,24,47.17,38.83a4,4,0,0,0,5.66,0L67.66,24Z"/><path d="M67.66,76,52.83,61.17a4,4,0,0,0-5.66,0L32.34,76,38,81.66l12-12,12,12Z"/></g><text x="0" y="115" fill="#000000" font-size="5px" font-weight="bold" font-family="'Helvetica Neue', Helvetica, Arial-Unicode, Arial, Sans-serif">Created by Gregor Cresnar</text><text x="0" y="120" fill="#000000" font-size="5px" font-weight="bold" font-family="'Helvetica Neue', Helvetica, Arial-Unicode, Arial, Sans-serif">from the Noun Project</text></svg>