<svg xmlns="http://www.w3.org/2000/svg" data-name="Layer 1" viewBox="0 0 100 125" x="0px" y="0px"><title>Artboard 45</title><g><path d="M44,29.84V21.6A30,30,0,0,0,32,75H22v8H42a4,4,0,0,0,4-4V59H38V69.42a22,22,0,0,1,6-39.59Z"/><path d="M76,17H56a4,4,0,0,0-4,4V41h8V31.41a22,22,0,0,1-6,41.21v8.1A30,30,0,0,0,64.9,25H76Z"/></g><text x="0" y="115" fill="#000000" font-size="5px" font-weight="bold" font-family="'Helvetica Neue', Helvetica, Arial-Unicode, Arial, Sans-serif">Created by Gregor Cresnar</text><text x="0" y="120" fill="#000000" font-size="5px" font-weight="bold" font-family="'Helvetica Neue', Helvetica, Arial-Unicode, Arial, Sans-serif">from the Noun Project</text></svg>